<svg width="24" height="24" viewBox="0 0 24 24" fill="none" xmlns="http://www.w3.org/2000/svg">
<path d="M1.4788 5.29921H5.20847C5.10709 4.6687 5.05653 4.03161 5.05726 3.39362V3.15946L5.66208 2.82033H0.000366338C-0.0120188 3.58132 0.290069 4.31598 0.840383 4.86318C1.03175 5.03554 1.2465 5.18222 1.4788 5.29921ZM6.39289 8.99734H3.44443C2.85734 9.00617 2.27809 8.86697 1.7644 8.59361H0.437175C0.437175 8.97322 0.51496 9.34911 0.666089 9.69983C0.817218 10.0505 1.03873 10.3692 1.31798 10.6376C1.88195 11.1797 2.64686 11.4843 3.44443 11.4843H8.01412C7.36904 10.7228 6.82449 9.88744 6.39289 8.99734ZM18.9847 3.39362C18.9855 4.03161 18.9349 4.6687 18.8335 5.29921H22.5632C22.7812 5.17671 22.9817 5.02742 23.1596 4.85511C23.7099 4.3079 24.012 3.57325 23.9996 2.81226H18.3799L18.9847 3.15139V3.39362ZM5.71248 5.70293C5.70855 5.68157 5.70855 5.6597 5.71248 5.63834C5.70837 5.65969 5.70837 5.68158 5.71248 5.70293C5.71248 5.70293 5.71248 5.75138 5.71248 5.7756C5.71655 5.75154 5.71655 5.727 5.71248 5.70293ZM6.58609 8.43212C6.60486 8.48729 6.6273 8.54123 6.6533 8.59361L6.7037 8.69858V8.59361L6.58609 8.43212ZM0.437175 5.70293C0.437175 6.46959 0.75401 7.20484 1.31798 7.74695C1.88195 8.28906 2.64686 8.59361 3.44443 8.59361H6.19969C5.77449 7.67033 5.47249 6.69906 5.30087 5.70293H0.437175ZM17.8423 8.59361H20.5976C21.3951 8.59361 22.16 8.28906 22.724 7.74695C23.288 7.20484 23.6048 6.46959 23.6048 5.70293H18.7411C18.5695 6.69906 18.2675 7.67033 17.8423 8.59361ZM20.5976 8.99734H17.6491C17.2175 9.88744 16.673 10.7228 16.0279 11.4843H20.5976C21.3951 11.4843 22.16 11.1797 22.724 10.6376C23.288 10.0955 23.6048 9.36027 23.6048 8.59361H22.2356C21.7343 8.86021 21.1705 8.99919 20.5976 8.99734Z" fill="#99A2AD"/>
<path d="M6.70494 8.69872V8.73909C7.53545 10.4386 8.75266 11.937 10.2666 13.1236C10.5357 13.3366 10.8161 13.536 11.1066 13.7211C11.3922 13.9068 11.6862 14.0925 11.9466 14.2621C12.249 14.0925 12.5431 13.9068 12.7867 13.7211C13.0772 13.536 13.3576 13.3366 13.6267 13.1236C14.858 12.165 15.8946 10.9961 16.6843 9.67573C16.8691 9.3689 17.0371 9.04592 17.1967 8.72294V8.67449V8.72294L17.2471 8.61797V8.55337C17.5013 8.00889 17.7147 7.44762 17.8856 6.87387V6.8012C17.9864 6.46207 18.062 6.12294 18.1292 5.77574C18.2781 5.01698 18.354 4.24665 18.356 3.4745L12.8623 0.212396C12.6151 0.0733104 12.3339 0 12.0474 0C11.761 0 11.4798 0.0733104 11.2326 0.212396L5.47852 3.39376C5.47927 5.22696 5.89789 7.03774 6.70494 8.69872Z" fill="#99A2AD"/>
<path d="M12.2306 14.6416L12.0206 14.7627L11.8106 14.6416C11.2817 14.3489 10.7737 14.0225 10.2902 13.6646V16.3614H13.751V13.6646C13.2675 14.0225 12.7595 14.3489 12.2306 14.6416ZM17.5815 20.6975H6.45969C6.1225 20.6975 5.799 20.8256 5.55979 21.0541C5.32058 21.2825 5.18508 21.5926 5.18286 21.9167V23.5316C5.18285 23.5938 5.19573 23.6554 5.22073 23.7127C5.24574 23.7701 5.28238 23.8221 5.32852 23.8657C5.37465 23.9093 5.42936 23.9436 5.48944 23.9666C5.54953 23.9897 5.61379 24.001 5.67847 23.9999H18.3627C18.4274 24.001 18.4917 23.9897 18.5517 23.9666C18.6118 23.9436 18.6665 23.9093 18.7127 23.8657C18.7588 23.8221 18.7954 23.7701 18.8205 23.7127C18.8455 23.6554 18.8583 23.5938 18.8583 23.5316V21.9167C18.8561 21.5926 18.7206 21.2825 18.4814 21.0541C18.2422 20.8256 17.9187 20.6975 17.5815 20.6975ZM8.58493 18.4527C8.41765 18.4527 8.25202 18.4845 8.09757 18.5463C7.94313 18.6081 7.80293 18.6986 7.68503 18.8127C7.56714 18.9268 7.47388 19.0621 7.41063 19.211C7.34739 19.3599 7.31539 19.5193 7.3165 19.6801V20.2534C7.31243 20.2774 7.31243 20.302 7.3165 20.326H16.7163C16.7204 20.302 16.7204 20.2774 16.7163 20.2534V19.6801C16.7174 19.52 16.6857 19.3612 16.623 19.2129C16.5602 19.0645 16.4677 18.9295 16.3507 18.8156C16.2337 18.7016 16.0945 18.6109 15.941 18.5486C15.7876 18.4864 15.6228 18.4538 15.4563 18.4527H8.58493ZM8.86213 17.8068V17.944C8.85806 17.9681 8.85806 17.9927 8.86213 18.0167H15.1623C15.1663 17.9927 15.1663 17.9681 15.1623 17.944V17.8068C15.1623 17.4834 15.0286 17.1733 14.7907 16.9446C14.5529 16.716 14.2302 16.5875 13.8938 16.5875H10.1138C9.78027 16.5918 9.46194 16.7221 9.22769 16.9503C8.99343 17.1785 8.8621 17.4862 8.86213 17.8068Z" fill="#99A2AD"/>
</svg>
