<svg width="28" height="28" viewBox="0 0 28 28" fill="none" xmlns="http://www.w3.org/2000/svg">
<path d="M15.1666 3.5L17.1898 8.76034C17.5188 9.61577 17.6834 10.0435 17.9392 10.4033C18.1659 10.7221 18.4445 11.0007 18.7634 11.2275C19.1231 11.4833 19.5509 11.6478 20.4063 11.9768L25.6666 14L20.4063 16.0232C19.5509 16.3522 19.1231 16.5167 18.7634 16.7725C18.4445 16.9993 18.1659 17.2779 17.9392 17.5967C17.6834 17.9565 17.5188 18.3842 17.1898 19.2397L15.1666 24.5L13.1434 19.2397C12.8144 18.3842 12.6499 17.9565 12.3941 17.5967C12.1673 17.2779 11.8888 16.9993 11.5699 16.7725C11.2101 16.5167 10.7824 16.3522 9.92697 16.0232L4.66663 14L9.92696 11.9768C10.7824 11.6478 11.2101 11.4833 11.5699 11.2275C11.8888 11.0007 12.1673 10.7221 12.3941 10.4033C12.6499 10.0435 12.8144 9.61577 13.1434 8.76034L15.1666 3.5Z" stroke="#99A2AD" stroke-width="2" stroke-linecap="round" stroke-linejoin="round"/>
<path d="M5.2834 3.68401L5.49972 3.03354L5.7166 3.68401C5.71661 3.68404 5.71662 3.68406 5.71662 3.68409C5.96783 4.43963 6.55993 5.03155 7.31554 5.28268C7.31559 5.28269 7.31563 5.28271 7.31568 5.28272L7.96767 5.5L7.31555 5.71732C7.31548 5.71734 7.31541 5.71737 7.31533 5.71739C7.31531 5.7174 7.31529 5.71741 7.31527 5.71741C6.94295 5.84129 6.60462 6.05022 6.32714 6.32763C6.04966 6.60505 5.84066 6.94331 5.71674 7.31558C5.7167 7.31567 5.71667 7.31577 5.71664 7.31587L5.49912 7.96825L5.28161 7.31587C5.28157 7.31577 5.28154 7.31567 5.28151 7.31558C5.15759 6.94331 4.94859 6.60505 4.67111 6.32763L4.33174 6.66708L4.67111 6.32763C4.39367 6.05026 4.05541 5.84136 3.68316 5.71748C3.68314 5.71747 3.68312 5.71746 3.68309 5.71745C3.68296 5.71741 3.68283 5.71736 3.6827 5.71732L3.03187 5.50015L3.68432 5.28272C3.68441 5.28269 3.6845 5.28266 3.68459 5.28263C3.68464 5.28262 3.68468 5.2826 3.68473 5.28259C4.44023 5.0314 5.03222 4.43952 5.28339 3.68405C5.28339 3.68404 5.2834 3.68402 5.2834 3.68401Z" fill="#99A2AD" stroke="#99A2AD"/>
<path d="M5.2834 20.684L5.49972 20.0335L5.7166 20.684C5.71661 20.684 5.71662 20.6841 5.71662 20.6841C5.96783 21.4396 6.55993 22.0315 7.31554 22.2827C7.31559 22.2827 7.31563 22.2827 7.31568 22.2827L7.96767 22.5L7.31555 22.7173C7.31548 22.7173 7.31541 22.7174 7.31533 22.7174C7.31531 22.7174 7.31529 22.7174 7.31527 22.7174C6.94295 22.8413 6.60462 23.0502 6.32714 23.3276C6.04966 23.605 5.84066 23.9433 5.71674 24.3156C5.7167 24.3157 5.71667 24.3158 5.71664 24.3159L5.49912 24.9683L5.28161 24.3159C5.28157 24.3158 5.28154 24.3157 5.28151 24.3156C5.15759 23.9433 4.94859 23.605 4.67111 23.3276L4.33174 23.6671L4.67111 23.3276C4.39367 23.0503 4.05541 22.8414 3.68316 22.7175C3.68314 22.7175 3.68312 22.7175 3.68309 22.7175C3.68296 22.7174 3.68283 22.7174 3.6827 22.7173L3.03187 22.5002L3.68432 22.2827C3.68441 22.2827 3.6845 22.2827 3.68459 22.2826C3.68464 22.2826 3.68468 22.2826 3.68473 22.2826C4.44023 22.0314 5.03222 21.4395 5.28339 20.6841C5.28339 20.684 5.2834 20.684 5.2834 20.684Z" fill="#99A2AD" stroke="#99A2AD"/>
</svg>
