<svg width="24" height="24" viewBox="0 0 24 24" fill="none" xmlns="http://www.w3.org/2000/svg">
<g clip-path="url(#clip0_249_7725)">
<path d="M19.9856 -0.000882644C19.777 0.00244111 19.578 0.0870965 19.431 0.235037L17.8311 1.83492C17.7563 1.90924 17.697 1.99761 17.6565 2.09494C17.616 2.19227 17.5952 2.29665 17.5952 2.40206V5.26903L17.1577 5.7065C15.2798 4.09912 12.886 3.19888 10.3973 3.19888C4.6634 3.19888 -0.00195312 7.86425 -0.00195312 13.5981C-0.00195312 19.332 4.6634 23.9973 10.3973 23.9973C16.1311 23.9973 20.7949 19.332 20.7949 13.5981C20.7949 11.6895 20.2708 9.81906 19.2778 8.18912C19.226 8.09393 19.1554 8.01026 19.0702 7.94319C18.9851 7.87613 18.8872 7.82707 18.7825 7.79899C18.6778 7.77091 18.5685 7.7644 18.4612 7.77985C18.3539 7.79531 18.2509 7.83241 18.1583 7.88889C18.0658 7.94537 17.9858 8.02006 17.923 8.10843C17.8602 8.1968 17.8161 8.29701 17.7932 8.40296C17.7703 8.50892 17.7692 8.61842 17.79 8.72481C17.8107 8.8312 17.8529 8.93227 17.9139 9.02187C18.7542 10.4011 19.195 11.983 19.195 13.5981C19.195 18.4673 15.2665 22.3974 10.3973 22.3974C5.52803 22.3974 1.59793 18.4673 1.59793 13.5981C1.59793 8.72888 5.52803 4.80032 10.3973 4.80032C12.462 4.80029 14.4491 5.53045 16.0234 6.84079L14.8875 7.97664C13.6181 6.96268 12.0377 6.4002 10.3973 6.4002C6.43063 6.4002 3.19782 9.63145 3.1978 13.5981C3.1978 17.5648 6.4306 20.796 10.3973 20.796C14.3639 20.796 17.5952 17.5648 17.5952 13.5981C17.5952 12.5779 17.3817 11.569 16.9624 10.6389C16.9203 10.5411 16.8591 10.4526 16.7824 10.3787C16.7057 10.3048 16.615 10.247 16.5156 10.2086C16.4163 10.1702 16.3103 10.152 16.2038 10.155C16.0973 10.1581 15.9925 10.1824 15.8956 10.2265C15.7986 10.2705 15.7114 10.3335 15.6391 10.4117C15.5667 10.4899 15.5107 10.5817 15.4743 10.6818C15.4379 10.7819 15.4219 10.8883 15.4271 10.9947C15.4323 11.101 15.4587 11.2053 15.5047 11.3014C15.8308 12.0248 15.9937 12.8046 15.9937 13.5981C15.9937 16.7001 13.4993 19.2024 10.3973 19.2024C7.29523 19.2024 4.79768 16.7001 4.79768 13.5981C4.79772 10.4961 7.29525 8.00007 10.3973 8.00007C11.6114 8.00007 12.7818 8.40092 13.7439 9.11874L12.6002 10.2624C11.9509 9.83428 11.1867 9.59995 10.3973 9.59995C8.19777 9.59995 6.39913 11.3986 6.39913 13.5981C6.39913 15.7976 8.19777 17.6025 10.3973 17.6025C12.5967 17.6025 14.3938 15.7976 14.3938 13.5981C14.4038 13.4874 14.3905 13.3759 14.355 13.2707C14.3195 13.1654 14.2624 13.0687 14.1875 12.9867C14.1125 12.9047 14.0213 12.8392 13.9196 12.7944C13.818 12.7496 13.7081 12.7265 13.597 12.7265C13.4859 12.7265 13.376 12.7496 13.2744 12.7944C13.1727 12.8392 13.0815 12.9047 13.0066 12.9867C12.9316 13.0687 12.8745 13.1654 12.839 13.2707C12.8035 13.3759 12.7903 13.4874 12.8002 13.5981C12.8002 14.9329 11.7321 16.001 10.3973 16.001C9.0624 16.001 7.999 14.9329 7.999 13.5981C7.999 12.2632 9.0624 11.2014 10.3973 11.2014C10.756 11.2014 11.1032 11.2884 11.4222 11.4389L9.83012 13.0309C9.75297 13.1047 9.69134 13.1931 9.64883 13.2911C9.60632 13.389 9.58378 13.4944 9.58255 13.6011C9.58132 13.7079 9.60141 13.8138 9.64165 13.9126C9.6819 14.0115 9.74148 14.1013 9.81691 14.1769C9.89233 14.2524 9.98209 14.3121 10.0809 14.3525C10.1797 14.3929 10.2856 14.4131 10.3923 14.412C10.4991 14.4109 10.6045 14.3885 10.7025 14.3462C10.8004 14.3038 10.889 14.2423 10.9628 14.1652L13.0861 12.042C13.2013 11.9736 13.2974 11.8774 13.3658 11.7623L15.3484 9.77963C15.4636 9.71128 15.5598 9.61512 15.6281 9.49996L17.6967 7.43137C17.7348 7.39978 17.7698 7.36474 17.8014 7.32669L18.7279 6.4002H21.598C21.8087 6.3985 22.0103 6.31372 22.1589 6.16428L23.7603 4.56283C23.9093 4.41294 23.993 4.21017 23.993 3.99881C23.993 3.78746 23.9093 3.58469 23.7603 3.43479L22.2495 1.92241C22.2004 1.85413 22.1408 1.79402 22.0729 1.7443L20.5652 0.235037C20.4894 0.158778 20.399 0.0985831 20.2994 0.0580484C20.1998 0.0175137 20.0931 -0.00253019 19.9856 -0.000882644ZM19.9981 1.93022L20.4668 2.39894L19.195 3.67071V2.73329L19.9981 1.93022ZM21.5979 3.5301L22.0651 3.99725L21.2683 4.80032H20.3277L21.5979 3.5301Z" fill="#99A2AD"/>
</g>
<defs>
<clipPath id="clip0_249_7725">
<rect width="23.9968" height="24" fill="white"/>
</clipPath>
</defs>
</svg>
