<svg width="24" height="24" viewBox="0 0 24 24" fill="none" xmlns="http://www.w3.org/2000/svg">
<path fill-rule="evenodd" clip-rule="evenodd" d="M18.2913 1C20.2743 1 22.1371 2.13232 23.0985 3.95661C24.9158 7.42926 23.7976 10.9309 21.4189 12.6802C21.2613 12.7962 21.2232 13.028 21.3352 13.1922C22.6582 15.132 22.988 17.8779 21.4761 20.5954C20.5147 22.3568 18.6819 23.3948 16.7591 23.3948H9.84872L6.48368 23.4262C6.39355 23.4262 6.33346 23.3319 6.3635 23.2375L10.8245 10.8354C10.8703 10.708 10.9852 10.6224 11.1151 10.6188L13.8583 10.5432C14.083 10.537 14.2435 10.7695 14.1675 10.9912L11.2341 19.5497C11.1593 19.7679 11.3136 19.9978 11.5349 19.9978H16.3384C18.5617 19.9978 20.2142 17.2928 18.4716 14.8395C18.081 14.2733 17.4501 13.9588 16.7891 13.9588H15.0182C14.7975 13.9588 14.6433 13.7299 14.7171 13.5119L15.662 10.7218C15.7073 10.5882 15.8279 10.4989 15.9632 10.4989H16.3384H17.8407C20.064 10.4989 21.7165 7.79392 19.9739 5.34056C19.5833 4.7744 18.9523 4.45987 18.2913 4.45987H2.69802C1.67649 4.45987 0.775143 3.76789 0.444649 2.76139L0.0172269 1.44256C-0.0531604 1.22538 0.100925 1 0.319791 1H18.2913ZM2.35273 6.1877C2.2857 5.97135 2.4396 5.74942 2.65665 5.74942H12.1919C13.8299 5.74942 14.9732 7.36082 14.5438 8.9873C14.5081 9.12228 14.3866 9.20929 14.253 9.20929H5.61203C4.22996 9.20929 3.02817 8.29714 2.57749 6.91319L2.35273 6.1877Z" fill="#99A2AD"/>
</svg>
