<svg width="54" height="91" viewBox="0 0 54 91" fill="none" xmlns="http://www.w3.org/2000/svg">
<path d="M31.911 15.5776H21.6175L0.159564 85.5308C-0.00634231 86.0757 -0.0422839 86.6519 0.0546209 87.2132C0.151526 87.7745 0.37858 88.3053 0.717586 88.763C1.05659 89.2207 1.49812 89.5927 2.00677 89.849C2.51543 90.1053 3.07707 90.239 3.64666 90.2391H49.8847C50.455 90.2392 51.0173 90.1056 51.5265 89.8489C52.0358 89.5923 52.4777 89.2197 52.8168 88.7613C53.1559 88.3028 53.3828 87.7712 53.4792 87.2092C53.5756 86.6471 53.5388 86.0703 53.3718 85.525L31.911 15.5776Z" fill="white"/>
<path opacity="0.2" d="M31.9112 15.5776H26.7659L20.2402 90.2391H49.8849C50.4552 90.2392 51.0175 90.1056 51.5267 89.8489C52.036 89.5923 52.4779 89.2197 52.817 88.7613C53.1561 88.3028 53.383 87.7712 53.4794 87.2092C53.5758 86.6471 53.539 86.0703 53.372 85.525L31.9112 15.5776Z" fill="#263238"/>
<path opacity="0.2" d="M31.911 15.5776H29.4946L36.8595 90.2391H49.8819C50.4521 90.2392 51.0144 90.1056 51.5237 89.8489C52.0329 89.5923 52.4748 89.2197 52.814 88.7613C53.1531 88.3028 53.38 87.7712 53.4764 87.2092C53.5727 86.6471 53.5359 86.0703 53.3689 85.525L31.911 15.5776Z" fill="#263238"/>
<path opacity="0.2" d="M21.6178 15.5776H24.0978L6.34983 90.2391H3.64696C3.07671 90.2392 2.51437 90.1056 2.00514 89.8489C1.49591 89.5923 1.05398 89.2197 0.714849 88.7613C0.375719 88.3028 0.148848 87.7712 0.0524622 87.2092C-0.0439236 86.6471 -0.00713909 86.0703 0.159865 85.525L21.6178 15.5776Z" fill="white"/>
<path d="M26.6849 12.7966C28.1877 12.796 29.6487 13.291 30.8416 14.205C32.0344 15.119 32.8925 16.401 33.2829 17.8522L36.605 30.209L35.7224 34.1157L32.3424 30.9151L29.1389 38.2712L26.2219 33.1578L22.5988 38.2712L21.0245 30.6025L17.7313 34.9664L16.95 29.9196L20.0753 17.8927C20.4586 16.4321 21.3152 15.1396 22.5111 14.2176C23.707 13.2955 25.1748 12.7958 26.6849 12.7966Z" fill="white"/>
<path opacity="0.7" d="M26.6849 12.7966C28.1877 12.796 29.6487 13.291 30.8416 14.205C32.0344 15.119 32.8925 16.401 33.2829 17.8522L36.605 30.209L35.7224 34.1157L32.3424 30.9151L29.1389 38.2712L26.2219 33.1578L22.5988 38.2712L21.0245 30.6025L17.7313 34.9664L16.95 29.9196L20.0753 17.8927C20.4586 16.4321 21.3152 15.1396 22.5111 14.2176C23.707 13.2955 25.1748 12.7958 26.6849 12.7966Z" fill="white"/>
<path d="M20.2403 90.5285C20.185 90.5286 20.1307 90.5129 20.0841 90.4832C20.0374 90.4534 20.0002 90.4109 19.977 90.3607L15.0719 79.7344C15.0465 79.679 15.0393 79.617 15.0513 79.5572C15.0632 79.4975 15.0937 79.443 15.1385 79.4016L34.2379 61.5118L22.3731 38.3957C22.345 38.3393 22.3349 38.2757 22.3442 38.2134L26.494 13.5201C26.5066 13.4433 26.5493 13.3748 26.6125 13.3294C26.6757 13.2841 26.7543 13.2658 26.8311 13.2785C26.9078 13.2911 26.9764 13.3338 27.0217 13.397C27.067 13.4602 27.0854 13.5388 27.0727 13.6156L22.9374 38.2134L34.8543 61.4395C34.8828 61.495 34.8925 61.5583 34.8821 61.6198C34.8717 61.6813 34.8416 61.7379 34.7964 61.7809L15.697 79.6765L20.5124 90.1205C20.545 90.1899 20.5486 90.2695 20.5226 90.3417C20.4965 90.4138 20.4429 90.4727 20.3735 90.5054C20.3314 90.5229 20.2859 90.5308 20.2403 90.5285Z" fill="#7E59E7"/>
<path d="M37.4458 62.244C37.8191 60.662 36.8394 59.077 35.2575 58.7036C33.6755 58.3302 32.0904 59.3099 31.7171 60.8919C31.3437 62.4738 32.3234 64.0589 33.9054 64.4323C35.4873 64.8057 37.0724 63.8259 37.4458 62.244Z" fill="#7E59E7"/>
<path d="M34.5852 64.805C33.9459 64.805 33.3209 64.6154 32.7894 64.2603C32.2578 63.9051 31.8435 63.4002 31.5988 62.8096C31.3542 62.2189 31.2902 61.569 31.4149 60.942C31.5396 60.3149 31.8475 59.739 32.2995 59.2869C32.7516 58.8348 33.3276 58.527 33.9546 58.4023C34.5816 58.2775 35.2316 58.3416 35.8222 58.5862C36.4129 58.8309 36.9177 59.2452 37.2729 59.7767C37.6281 60.3083 37.8177 60.9333 37.8177 61.5726C37.8169 62.4297 37.4761 63.2514 36.8701 63.8574C36.264 64.4635 35.4423 64.8043 34.5852 64.805ZM34.5852 58.9218C34.0602 58.9218 33.5471 59.0775 33.1106 59.3692C32.6742 59.661 32.334 60.0756 32.1333 60.5606C31.9325 61.0457 31.8801 61.5794 31.9828 62.0943C32.0854 62.6091 32.3384 63.0819 32.7098 63.4529C33.0812 63.8239 33.5543 64.0764 34.0693 64.1785C34.5842 64.2806 35.1179 64.2276 35.6027 64.0263C36.0876 63.825 36.5018 63.4844 36.7931 63.0477C37.0843 62.6109 37.2395 62.0976 37.2389 61.5726C37.2381 60.8693 36.9582 60.1951 36.4606 59.698C35.963 59.201 35.2885 58.9218 34.5852 58.9218Z" fill="white"/>
<path d="M18.553 79.8181C18.8131 78.209 17.7194 76.6937 16.1103 76.4336C14.5011 76.1735 12.9858 77.2672 12.7258 78.8763C12.4657 80.4855 13.5594 82.0008 15.1685 82.2608C16.7777 82.5209 18.293 81.4273 18.553 79.8181Z" fill="#7E59E7"/>
<path d="M15.335 82.8424C14.6955 82.8424 14.0705 82.6528 13.5388 82.2974C13.0072 81.9421 12.5929 81.4371 12.3483 80.8463C12.1037 80.2555 12.0399 79.6054 12.1649 78.9783C12.2898 78.3512 12.598 77.7752 13.0503 77.3233C13.5027 76.8713 14.0789 76.5637 14.7061 76.4393C15.3333 76.3149 15.9834 76.3793 16.574 76.6244C17.1646 76.8695 17.6692 77.2843 18.0241 77.8162C18.3789 78.3482 18.568 78.9734 18.5674 79.6129C18.5666 80.4697 18.2257 81.2911 17.6196 81.8967C17.0135 82.5022 16.1918 82.8424 15.335 82.8424ZM15.335 76.9592C14.8101 76.9592 14.2971 77.1148 13.8607 77.4064C13.4243 77.698 13.0842 78.1125 12.8833 78.5973C12.6825 79.0822 12.6299 79.6158 12.7323 80.1306C12.8347 80.6453 13.0874 81.1182 13.4585 81.4893C13.8297 81.8604 14.3025 82.1132 14.8173 82.2155C15.332 82.3179 15.8656 82.2654 16.3505 82.0645C16.8354 81.8637 17.2498 81.5236 17.5414 81.0872C17.833 80.6508 17.9886 80.1377 17.9886 79.6129C17.9879 78.9093 17.708 78.2348 17.2105 77.7373C16.7131 77.2398 16.0385 76.96 15.335 76.9592Z" fill="white"/>
<path d="M22.6249 41.2056C24.2503 41.2056 25.568 39.888 25.568 38.2626C25.568 36.6372 24.2503 35.3195 22.6249 35.3195C20.9995 35.3195 19.6819 36.6372 19.6819 38.2626C19.6819 39.888 20.9995 41.2056 22.6249 41.2056Z" fill="#7E59E7"/>
<path d="M22.6245 41.495C21.9852 41.495 21.3603 41.3054 20.8287 40.9502C20.2971 40.5951 19.8828 40.0902 19.6381 39.4996C19.3935 38.9089 19.3295 38.259 19.4542 37.6319C19.5789 37.0049 19.8868 36.4289 20.3389 35.9769C20.7909 35.5248 21.3669 35.217 21.9939 35.0922C22.6209 34.9675 23.2709 35.0315 23.8615 35.2762C24.4522 35.5208 24.957 35.9351 25.3122 36.4667C25.6674 36.9983 25.857 37.6232 25.857 38.2626C25.8562 39.1196 25.5154 39.9414 24.9094 40.5474C24.3033 41.1534 23.4816 41.4942 22.6245 41.495ZM22.6245 35.6089C22.0997 35.6089 21.5866 35.7645 21.1502 36.0561C20.7138 36.3477 20.3737 36.7622 20.1729 37.247C19.972 37.7319 19.9195 38.2655 20.0219 38.7803C20.1242 39.295 20.377 39.7679 20.7481 40.139C21.1192 40.5101 21.5921 40.7628 22.1068 40.8652C22.6216 40.9676 23.1552 40.9151 23.64 40.7142C24.1249 40.5134 24.5394 40.1732 24.831 39.7369C25.1226 39.3005 25.2782 38.7874 25.2782 38.2626C25.2774 37.559 24.9976 36.8845 24.5001 36.387C24.0026 35.8895 23.3281 35.6097 22.6245 35.6089Z" fill="white"/>
<path d="M29.7981 13.7514C30.0582 12.1422 28.9645 10.6269 27.3554 10.3669C25.7463 10.1068 24.231 11.2005 23.9709 12.8096C23.7108 14.4188 24.8045 15.9341 26.4136 16.1941C28.0228 16.4542 29.5381 15.3605 29.7981 13.7514Z" fill="#7E59E7"/>
<path d="M26.7747 16.7988C26.1352 16.7988 25.5102 16.6092 24.9785 16.2539C24.4469 15.8986 24.0326 15.3935 23.788 14.8027C23.5434 14.2119 23.4796 13.5618 23.6046 12.9347C23.7295 12.3076 24.0377 11.7316 24.49 11.2797C24.9424 10.8277 25.5186 10.5201 26.1458 10.3957C26.773 10.2713 27.4231 10.3357 28.0137 10.5808C28.6043 10.8259 29.1089 11.2407 29.4638 11.7727C29.8186 12.3046 30.0077 12.9298 30.0071 13.5693C30.0056 14.4258 29.6644 15.2468 29.0585 15.8523C28.4525 16.4577 27.6312 16.7981 26.7747 16.7988ZM26.7747 10.9156C26.2498 10.9156 25.7368 11.0713 25.3004 11.3628C24.864 11.6544 24.5238 12.0689 24.323 12.5538C24.1221 13.0387 24.0696 13.5722 24.172 14.087C24.2744 14.6018 24.5271 15.0746 24.8982 15.4457C25.2694 15.8168 25.7422 16.0696 26.257 16.172C26.7717 16.2744 27.3053 16.2218 27.7902 16.021C28.2751 15.8201 28.6895 15.48 28.9811 15.0436C29.2727 14.6072 29.4283 14.0941 29.4283 13.5693C29.4276 12.8657 29.1477 12.1912 28.6502 11.6937C28.1528 11.1962 27.4782 10.9164 26.7747 10.9156Z" fill="white"/>
<path d="M27.29 11C27.2131 11 27.1393 10.9753 27.0849 10.9314C27.0305 10.8874 27 10.8278 27 10.7657V0.234342C27 0.17219 27.0305 0.112585 27.0849 0.0686369C27.1393 0.0246893 27.2131 0 27.29 0C27.3669 0 27.4407 0.0246893 27.4951 0.0686369C27.5494 0.112585 27.58 0.17219 27.58 0.234342V10.7657C27.58 10.8278 27.5494 10.8874 27.4951 10.9314C27.4407 10.9753 27.3669 11 27.29 11Z" fill="white"/>
<path d="M15.095 5.69799C17.6994 6.58351 20.2808 4.82984 22.8765 5.69799V1.27618C20.2721 0.408026 17.6879 2.1617 15.095 1.27618V5.69799Z" fill="white"/>
<path opacity="0.2" d="M17.9368 1.44114V5.86006C19.5834 5.64302 21.23 5.1366 22.8766 5.69801V1.27619C21.23 0.714785 19.5834 1.22121 17.9368 1.44114Z" fill="black"/>
<path d="M18.9844 4.70832C21.5888 5.59384 24.1731 3.84016 26.766 4.70832V0.289396C24.1615 -0.596124 21.5802 1.15755 18.9844 0.289396V4.70832Z" fill="white"/>
</svg>
