<svg width="24" height="24" viewBox="0 0 24 24" fill="none" xmlns="http://www.w3.org/2000/svg">
<path fill-rule="evenodd" clip-rule="evenodd" d="M12 24C18.6274 24 24 18.6274 24 12C24 5.37258 18.6274 0 12 0C5.37258 0 0 5.37258 0 12C0 18.6274 5.37258 24 12 24ZM11.3283 6.5H8.94629V8.24383H11.48C11.5862 8.24383 11.7 8.24897 11.8213 8.25926C11.9478 8.2644 12.0666 8.28241 12.1779 8.31327C12.4763 8.39043 12.7114 8.52675 12.8834 8.72222C13.0604 8.9177 13.1843 9.14146 13.2551 9.39352C13.2575 9.40124 13.2598 9.40896 13.2621 9.41667H8.99939V10.821H13.2621C13.2598 10.8287 13.2575 10.8364 13.2551 10.8441C13.1843 11.091 13.0604 11.3122 12.8834 11.5077C12.7114 11.698 12.4763 11.8344 12.1779 11.9167C12.0666 11.9475 11.9478 11.9681 11.8213 11.9784C11.7 11.9887 11.5862 11.9938 11.48 11.9938H8.94629V13.7299L13.1944 17.6111H15.7433L11.4463 13.7299H11.5483C11.7809 13.7299 11.9756 13.7248 12.1324 13.7145C12.2891 13.6991 12.4712 13.6682 12.6786 13.6219C13.5332 13.4213 14.1679 13.0123 14.5826 12.3951C14.8878 11.9425 15.0821 11.4178 15.1654 10.821L16.5018 10.821V9.41667L15.1644 9.41667C15.116 9.07458 15.0308 8.75308 14.9088 8.45216C14.8315 8.2565 14.7374 8.07388 14.6266 7.90432H16.4563V6.5H11.5558H11.3283Z" fill="white"/>
</svg>
